<svg width="180" height="109" viewBox="0 0 180 109" fill="none" xmlns="http://www.w3.org/2000/svg">
<rect x="11" y="7" width="167" height="100" fill="#FFD66D"/>
<path d="M22.3977 45.2727H23.4545V51.5114C23.4545 52.0682 23.3523 52.5412 23.1477 52.9304C22.9432 53.3196 22.6548 53.6151 22.2827 53.8168C21.9105 54.0185 21.4716 54.1193 20.9659 54.1193C20.4886 54.1193 20.0639 54.0327 19.6918 53.8594C19.3196 53.6832 19.027 53.4332 18.8139 53.1094C18.6009 52.7855 18.4943 52.4006 18.4943 51.9545H19.5341C19.5341 52.2017 19.5952 52.4176 19.7173 52.6023C19.8423 52.7841 20.0128 52.9261 20.2287 53.0284C20.4446 53.1307 20.6903 53.1818 20.9659 53.1818C21.2699 53.1818 21.5284 53.1179 21.7415 52.9901C21.9545 52.8622 22.1165 52.6747 22.2273 52.4276C22.3409 52.1776 22.3977 51.8722 22.3977 51.5114V45.2727ZM29.5611 51.3239V47.4545H30.5668V54H29.5611V52.892H29.4929C29.3395 53.2244 29.1009 53.5071 28.777 53.7401C28.4531 53.9702 28.044 54.0852 27.5497 54.0852C27.1406 54.0852 26.777 53.9957 26.4588 53.8168C26.1406 53.6349 25.8906 53.3622 25.7088 52.9986C25.527 52.6321 25.4361 52.1705 25.4361 51.6136V47.4545H26.4418V51.5455C26.4418 52.0227 26.5753 52.4034 26.8423 52.6875C27.1122 52.9716 27.456 53.1136 27.8736 53.1136C28.1236 53.1136 28.3778 53.0497 28.6364 52.9219C28.8977 52.794 29.1165 52.598 29.2926 52.3338C29.4716 52.0696 29.5611 51.733 29.5611 51.3239ZM32.4087 54V47.4545H33.3803V48.4773H33.4656C33.6019 48.1278 33.8221 47.8565 34.1261 47.6634C34.43 47.4673 34.7951 47.3693 35.2212 47.3693C35.6531 47.3693 36.0124 47.4673 36.2994 47.6634C36.5891 47.8565 36.815 48.1278 36.9769 48.4773H37.0451C37.2127 48.1392 37.4641 47.8707 37.7994 47.6719C38.1346 47.4702 38.5366 47.3693 39.0053 47.3693C39.5906 47.3693 40.0692 47.5526 40.4414 47.919C40.8136 48.2827 40.9996 48.8494 40.9996 49.6193V54H39.994V49.6193C39.994 49.1364 39.8619 48.7912 39.5977 48.5838C39.3335 48.3764 39.0224 48.2727 38.6644 48.2727C38.2042 48.2727 37.8477 48.4119 37.5948 48.6903C37.342 48.9659 37.2156 49.3153 37.2156 49.7386V54H36.1928V49.517C36.1928 49.1449 36.0721 48.8452 35.8306 48.6179C35.5891 48.3878 35.2781 48.2727 34.8974 48.2727C34.636 48.2727 34.3917 48.3423 34.1644 48.4815C33.94 48.6207 33.7582 48.8139 33.619 49.0611C33.4826 49.3054 33.4144 49.5881 33.4144 49.9091V54H32.4087ZM42.8384 56.4545V47.4545H43.81V48.4943H43.9293C44.0032 48.3807 44.1055 48.2358 44.2362 48.0597C44.3697 47.8807 44.56 47.7216 44.8072 47.5824C45.0572 47.4403 45.3952 47.3693 45.8214 47.3693C46.3725 47.3693 46.8583 47.5071 47.2788 47.7827C47.6992 48.0582 48.0273 48.4489 48.2631 48.9545C48.4989 49.4602 48.6168 50.0568 48.6168 50.7443C48.6168 51.4375 48.4989 52.0384 48.2631 52.5469C48.0273 53.0526 47.7006 53.4446 47.283 53.723C46.8654 53.9986 46.3839 54.1364 45.8384 54.1364C45.418 54.1364 45.0813 54.0668 44.8285 53.9276C44.5756 53.7855 44.381 53.625 44.2447 53.446C44.1083 53.2642 44.0032 53.1136 43.9293 52.9943H43.8441V56.4545H42.8384ZM43.8271 50.7273C43.8271 51.2216 43.8995 51.6577 44.0444 52.0355C44.1893 52.4105 44.4009 52.7045 44.6793 52.9176C44.9577 53.1278 45.2987 53.233 45.7021 53.233C46.1225 53.233 46.4734 53.1222 46.7546 52.9006C47.0387 52.6761 47.2518 52.375 47.3938 51.9972C47.5387 51.6165 47.6112 51.1932 47.6112 50.7273C47.6112 50.267 47.5401 49.8523 47.3981 49.483C47.2589 49.1108 47.0472 48.8168 46.7631 48.6009C46.4819 48.3821 46.1282 48.2727 45.7021 48.2727C45.293 48.2727 44.9492 48.3764 44.6708 48.5838C44.3924 48.7884 44.1822 49.0753 44.0401 49.4446C43.8981 49.8111 43.8271 50.2386 43.8271 50.7273Z" fill="black"/>
<path d="M19.0568 72V63.2727H24.2898V64.2102H20.1136V67.1591H23.8977V68.0966H20.1136V72H19.0568ZM26.9691 63.2727V72H25.9634V63.2727H26.9691ZM28.8111 72V65.4545H29.8168V72H28.8111ZM29.3224 64.3636C29.1264 64.3636 28.9574 64.2969 28.8153 64.1634C28.6761 64.0298 28.6065 63.8693 28.6065 63.6818C28.6065 63.4943 28.6761 63.3338 28.8153 63.2003C28.9574 63.0668 29.1264 63 29.3224 63C29.5185 63 29.6861 63.0668 29.8253 63.2003C29.9673 63.3338 30.0384 63.4943 30.0384 63.6818C30.0384 63.8693 29.9673 64.0298 29.8253 64.1634C29.6861 64.2969 29.5185 64.3636 29.3224 64.3636ZM31.6587 74.4545V65.4545H32.6303V66.4943H32.7496C32.8235 66.3807 32.9258 66.2358 33.0565 66.0597C33.19 65.8807 33.3803 65.7216 33.6275 65.5824C33.8775 65.4403 34.2156 65.3693 34.6417 65.3693C35.1928 65.3693 35.6786 65.5071 36.0991 65.7827C36.5195 66.0582 36.8477 66.4489 37.0835 66.9545C37.3192 67.4602 37.4371 68.0568 37.4371 68.7443C37.4371 69.4375 37.3192 70.0384 37.0835 70.5469C36.8477 71.0526 36.521 71.4446 36.1033 71.723C35.6857 71.9986 35.2042 72.1364 34.6587 72.1364C34.2383 72.1364 33.9016 72.0668 33.6488 71.9276C33.396 71.7855 33.2013 71.625 33.065 71.446C32.9286 71.2642 32.8235 71.1136 32.7496 70.9943H32.6644V74.4545H31.6587ZM32.6474 68.7273C32.6474 69.2216 32.7198 69.6577 32.8647 70.0355C33.0096 70.4105 33.2212 70.7045 33.4996 70.9176C33.7781 71.1278 34.119 71.233 34.5224 71.233C34.9428 71.233 35.2937 71.1222 35.5749 70.9006C35.859 70.6761 36.0721 70.375 36.2141 69.9972C36.359 69.6165 36.4315 69.1932 36.4315 68.7273C36.4315 68.267 36.3604 67.8523 36.2184 67.483C36.0792 67.1108 35.8675 66.8168 35.5835 66.6009C35.3022 66.3821 34.9485 66.2727 34.5224 66.2727C34.1133 66.2727 33.7695 66.3764 33.4911 66.5838C33.2127 66.7884 33.0025 67.0753 32.8604 67.4446C32.7184 67.8111 32.6474 68.2386 32.6474 68.7273ZM42.4826 72V63.2727H45.4315C46.1161 63.2727 46.6758 63.3963 47.1104 63.6435C47.5479 63.8878 47.8718 64.2188 48.082 64.6364C48.2923 65.054 48.3974 65.5199 48.3974 66.0341C48.3974 66.5483 48.2923 67.0156 48.082 67.4361C47.8746 67.8565 47.5536 68.1918 47.119 68.4418C46.6843 68.6889 46.1275 68.8125 45.4485 68.8125H43.3349V67.875H45.4144C45.8832 67.875 46.2596 67.794 46.5437 67.6321C46.8278 67.4702 47.0337 67.2514 47.1616 66.9759C47.2923 66.6974 47.3576 66.3835 47.3576 66.0341C47.3576 65.6847 47.2923 65.3722 47.1616 65.0966C47.0337 64.821 46.8263 64.6051 46.5394 64.4489C46.2525 64.2898 45.8718 64.2102 45.3974 64.2102H43.5394V72H42.4826ZM50.9691 63.2727V72H49.9634V63.2727H50.9691ZM54.7372 72.1534C54.3224 72.1534 53.946 72.0753 53.608 71.919C53.2699 71.7599 53.0014 71.5312 52.8026 71.233C52.6037 70.9318 52.5043 70.5682 52.5043 70.142C52.5043 69.767 52.5781 69.4631 52.7259 69.2301C52.8736 68.9943 53.071 68.8097 53.3182 68.6761C53.5653 68.5426 53.8381 68.4432 54.1364 68.3778C54.4375 68.3097 54.7401 68.2557 55.044 68.2159C55.4418 68.1648 55.7642 68.1264 56.0114 68.1009C56.2614 68.0724 56.4432 68.0256 56.5568 67.9602C56.6733 67.8949 56.7315 67.7812 56.7315 67.6193V67.5852C56.7315 67.1648 56.6165 66.8381 56.3864 66.6051C56.1591 66.3722 55.8139 66.2557 55.3509 66.2557C54.8707 66.2557 54.4943 66.3608 54.2216 66.571C53.9489 66.7812 53.7571 67.0057 53.6463 67.2443L52.6918 66.9034C52.8622 66.5057 53.0895 66.196 53.3736 65.9744C53.6605 65.75 53.973 65.5937 54.3111 65.5057C54.652 65.4148 54.9872 65.3693 55.3168 65.3693C55.527 65.3693 55.7685 65.3949 56.0412 65.446C56.3168 65.4943 56.5824 65.5952 56.8381 65.7486C57.0966 65.902 57.3111 66.1335 57.4815 66.4432C57.652 66.7528 57.7372 67.1676 57.7372 67.6875V72H56.7315V71.1136H56.6804C56.6122 71.2557 56.4986 71.4077 56.3395 71.5696C56.1804 71.7315 55.9688 71.8693 55.7045 71.983C55.4403 72.0966 55.1179 72.1534 54.7372 72.1534ZM54.8906 71.25C55.2884 71.25 55.6236 71.1719 55.8963 71.0156C56.1719 70.8594 56.3793 70.6577 56.5185 70.4105C56.6605 70.1634 56.7315 69.9034 56.7315 69.6307V68.7102C56.6889 68.7614 56.5952 68.8082 56.4503 68.8509C56.3082 68.8906 56.1435 68.9261 55.956 68.9574C55.7713 68.9858 55.5909 69.0114 55.4148 69.0341C55.2415 69.054 55.1009 69.071 54.9929 69.0852C54.7315 69.1193 54.4872 69.1747 54.2599 69.2514C54.0355 69.3253 53.8537 69.4375 53.7145 69.5881C53.5781 69.7358 53.5099 69.9375 53.5099 70.1932C53.5099 70.5426 53.6392 70.8068 53.8977 70.9858C54.1591 71.1619 54.4901 71.25 54.8906 71.25ZM59.9862 74.4545C59.8157 74.4545 59.6637 74.4403 59.5302 74.4119C59.3967 74.3864 59.3043 74.3608 59.2532 74.3352L59.5089 73.4489C59.7532 73.5114 59.9691 73.5341 60.1566 73.517C60.3441 73.5 60.5103 73.4162 60.6552 73.2656C60.8029 73.1179 60.9379 72.8778 61.06 72.5455L61.2475 72.0341L58.8271 65.4545H59.918L61.7248 70.6705H61.793L63.5998 65.4545H64.6907L61.9123 72.9545C61.7873 73.2926 61.6325 73.5724 61.4478 73.794C61.2631 74.0185 61.0487 74.1847 60.8043 74.2926C60.5629 74.4006 60.2901 74.4545 59.9862 74.4545ZM68.5281 72.1364C67.8974 72.1364 67.3533 71.9972 66.896 71.7188C66.4414 71.4375 66.0906 71.0455 65.8434 70.5426C65.5991 70.0369 65.4769 69.4489 65.4769 68.7784C65.4769 68.108 65.5991 67.517 65.8434 67.0057C66.0906 66.4915 66.4343 66.0909 66.8746 65.804C67.3178 65.5142 67.8349 65.3693 68.4258 65.3693C68.7667 65.3693 69.1033 65.4261 69.4357 65.5398C69.7681 65.6534 70.0707 65.8381 70.3434 66.0938C70.6161 66.3466 70.8335 66.6818 70.9954 67.0994C71.1573 67.517 71.2383 68.0312 71.2383 68.642V69.0682H66.1928V68.1989H70.2156C70.2156 67.8295 70.1417 67.5 69.994 67.2102C69.8491 66.9205 69.6417 66.6918 69.3718 66.5241C69.1048 66.3565 68.7894 66.2727 68.4258 66.2727C68.0252 66.2727 67.6786 66.3722 67.386 66.571C67.0962 66.767 66.8732 67.0227 66.717 67.3381C66.5607 67.6534 66.4826 67.9915 66.4826 68.3523V68.9318C66.4826 69.4261 66.5678 69.8452 66.7383 70.1889C66.9116 70.5298 67.1516 70.7898 67.4585 70.9688C67.7653 71.1449 68.1218 71.233 68.5281 71.233C68.7923 71.233 69.0309 71.196 69.244 71.1222C69.4599 71.0455 69.646 70.9318 69.8022 70.7812C69.9585 70.6278 70.0792 70.4375 70.1644 70.2102L71.136 70.483C71.0337 70.8125 70.8619 71.1023 70.6204 71.3523C70.3789 71.5994 70.0806 71.7926 69.7255 71.9318C69.3704 72.0682 68.9712 72.1364 68.5281 72.1364ZM72.7681 72V65.4545H73.7397V66.4432H73.8079C73.9272 66.1193 74.1431 65.8565 74.4556 65.6548C74.7681 65.4531 75.1204 65.3523 75.5124 65.3523C75.5863 65.3523 75.6786 65.3537 75.7894 65.3565C75.9002 65.3594 75.984 65.3636 76.0408 65.3693V66.392C76.0067 66.3835 75.9286 66.3707 75.8065 66.3537C75.6871 66.3338 75.5607 66.3239 75.4272 66.3239C75.109 66.3239 74.8249 66.3906 74.5749 66.5241C74.3278 66.6548 74.1317 66.8366 73.9869 67.0696C73.8448 67.2997 73.7738 67.5625 73.7738 67.858V72H72.7681Z" fill="black"/>
<path d="M20.0568 38V29.2727H21.1136V37.0625H25.1705V38H20.0568ZM29.4148 38.1364C28.7841 38.1364 28.2401 37.9972 27.7827 37.7188C27.3281 37.4375 26.9773 37.0455 26.7301 36.5426C26.4858 36.0369 26.3636 35.4489 26.3636 34.7784C26.3636 34.108 26.4858 33.517 26.7301 33.0057C26.9773 32.4915 27.321 32.0909 27.7614 31.804C28.2045 31.5142 28.7216 31.3693 29.3125 31.3693C29.6534 31.3693 29.9901 31.4261 30.3224 31.5398C30.6548 31.6534 30.9574 31.8381 31.2301 32.0938C31.5028 32.3466 31.7202 32.6818 31.8821 33.0994C32.044 33.517 32.125 34.0312 32.125 34.642V35.0682H27.0795V34.1989H31.1023C31.1023 33.8295 31.0284 33.5 30.8807 33.2102C30.7358 32.9205 30.5284 32.6918 30.2585 32.5241C29.9915 32.3565 29.6761 32.2727 29.3125 32.2727C28.9119 32.2727 28.5653 32.3722 28.2727 32.571C27.983 32.767 27.7599 33.0227 27.6037 33.3381C27.4474 33.6534 27.3693 33.9915 27.3693 34.3523V34.9318C27.3693 35.4261 27.4545 35.8452 27.625 36.1889C27.7983 36.5298 28.0384 36.7898 28.3452 36.9688C28.652 37.1449 29.0085 37.233 29.4148 37.233C29.679 37.233 29.9176 37.196 30.1307 37.1222C30.3466 37.0455 30.5327 36.9318 30.6889 36.7812C30.8452 36.6278 30.9659 36.4375 31.0511 36.2102L32.0227 36.483C31.9205 36.8125 31.7486 37.1023 31.5071 37.3523C31.2656 37.5994 30.9673 37.7926 30.6122 37.9318C30.2571 38.0682 29.858 38.1364 29.4148 38.1364ZM36.5696 31.4545V32.3068H33.0412V31.4545H36.5696ZM34.098 38V30.5511C34.098 30.1761 34.1861 29.8636 34.3622 29.6136C34.5384 29.3636 34.767 29.1761 35.0483 29.0511C35.3295 28.9261 35.6264 28.8636 35.9389 28.8636C36.1861 28.8636 36.3878 28.8835 36.544 28.9233C36.7003 28.9631 36.8168 29 36.8935 29.0341L36.6037 29.9034C36.5526 29.8864 36.4815 29.8651 36.3906 29.8395C36.3026 29.8139 36.1861 29.8011 36.0412 29.8011C35.7088 29.8011 35.4688 29.8849 35.321 30.0526C35.1761 30.2202 35.1037 30.4659 35.1037 30.7898V38H34.098ZM40.8256 31.4545V32.3068H37.4336V31.4545H40.8256ZM38.4222 29.8864H39.4279V36.125C39.4279 36.4091 39.4691 36.6222 39.5515 36.7642C39.6367 36.9034 39.7447 36.9972 39.8754 37.0455C40.0089 37.0909 40.1495 37.1136 40.2972 37.1136C40.408 37.1136 40.4989 37.108 40.57 37.0966C40.641 37.0824 40.6978 37.071 40.7404 37.0625L40.945 37.9659C40.8768 37.9915 40.7816 38.017 40.6594 38.0426C40.5373 38.071 40.3825 38.0852 40.195 38.0852C39.9109 38.0852 39.6325 38.0241 39.3597 37.902C39.0898 37.7798 38.8654 37.5938 38.6864 37.3438C38.5103 37.0938 38.4222 36.7784 38.4222 36.3977V29.8864Z" fill="black"/>
<path d="M20.0568 21V12.2727H23.0057C23.6875 12.2727 24.2472 12.3892 24.6847 12.6222C25.1222 12.8523 25.446 13.169 25.6562 13.5724C25.8665 13.9759 25.9716 14.4347 25.9716 14.9489C25.9716 15.4631 25.8665 15.919 25.6562 16.3168C25.446 16.7145 25.1236 17.027 24.6889 17.2543C24.2543 17.4787 23.6989 17.5909 23.0227 17.5909H20.6364V16.6364H22.9886C23.4545 16.6364 23.8295 16.5682 24.1136 16.4318C24.4006 16.2955 24.608 16.1023 24.7358 15.8523C24.8665 15.5994 24.9318 15.2983 24.9318 14.9489C24.9318 14.5994 24.8665 14.294 24.7358 14.0327C24.6051 13.7713 24.3963 13.5696 24.1094 13.4276C23.8224 13.2827 23.4432 13.2102 22.9716 13.2102H21.1136V21H20.0568ZM24.1648 17.0795L26.3125 21H25.0852L22.9716 17.0795H24.1648ZM27.5962 21V14.4545H28.6019V21H27.5962ZM28.1076 13.3636C27.9116 13.3636 27.7425 13.2969 27.6005 13.1634C27.4613 13.0298 27.3917 12.8693 27.3917 12.6818C27.3917 12.4943 27.4613 12.3338 27.6005 12.2003C27.7425 12.0668 27.9116 12 28.1076 12C28.3036 12 28.4712 12.0668 28.6104 12.2003C28.7525 12.3338 28.8235 12.4943 28.8235 12.6818C28.8235 12.8693 28.7525 13.0298 28.6104 13.1634C28.4712 13.2969 28.3036 13.3636 28.1076 13.3636ZM33.0859 23.5909C32.6001 23.5909 32.1825 23.5284 31.8331 23.4034C31.4837 23.2812 31.1925 23.1193 30.9595 22.9176C30.7294 22.7188 30.5462 22.5057 30.4098 22.2784L31.2109 21.7159C31.3018 21.8352 31.4169 21.9716 31.5561 22.125C31.6953 22.2812 31.8857 22.4162 32.1271 22.5298C32.3714 22.6463 32.6911 22.7045 33.0859 22.7045C33.6143 22.7045 34.0504 22.5767 34.3942 22.321C34.7379 22.0653 34.9098 21.6648 34.9098 21.1193V19.7898H34.8246C34.7507 19.9091 34.6456 20.0568 34.5092 20.233C34.3757 20.4062 34.1825 20.5611 33.9297 20.6974C33.6797 20.831 33.3416 20.8977 32.9155 20.8977C32.3871 20.8977 31.9126 20.7727 31.4922 20.5227C31.0746 20.2727 30.7436 19.9091 30.4993 19.4318C30.2578 18.9545 30.1371 18.375 30.1371 17.6932C30.1371 17.0227 30.255 16.4389 30.4908 15.9418C30.7266 15.4418 31.0547 15.0554 31.4751 14.7827C31.8956 14.5071 32.3814 14.3693 32.9325 14.3693C33.3587 14.3693 33.6967 14.4403 33.9467 14.5824C34.1996 14.7216 34.3928 14.8807 34.5263 15.0597C34.6626 15.2358 34.7678 15.3807 34.8416 15.4943H34.9439V14.4545H35.9155V21.1875C35.9155 21.75 35.7876 22.2074 35.532 22.5597C35.2791 22.9148 34.9382 23.1747 34.5092 23.3395C34.0831 23.5071 33.6087 23.5909 33.0859 23.5909ZM33.0518 19.9943C33.4553 19.9943 33.7962 19.902 34.0746 19.7173C34.353 19.5327 34.5646 19.267 34.7095 18.9205C34.8544 18.5739 34.9268 18.1591 34.9268 17.6761C34.9268 17.2045 34.8558 16.7884 34.7138 16.4276C34.5717 16.0668 34.3615 15.7841 34.0831 15.5795C33.8047 15.375 33.4609 15.2727 33.0518 15.2727C32.6257 15.2727 32.2706 15.3807 31.9865 15.5966C31.7053 15.8125 31.4936 16.1023 31.3516 16.4659C31.2124 16.8295 31.1428 17.233 31.1428 17.6761C31.1428 18.1307 31.2138 18.5327 31.3558 18.8821C31.5007 19.2287 31.7138 19.5014 31.995 19.7003C32.2791 19.8963 32.6314 19.9943 33.0518 19.9943ZM38.7621 17.0625V21H37.7564V12.2727H38.7621V15.4773H38.8473C39.0007 15.1392 39.2308 14.8707 39.5376 14.6719C39.8473 14.4702 40.2592 14.3693 40.7734 14.3693C41.2195 14.3693 41.6101 14.4588 41.9453 14.6378C42.2805 14.8139 42.5405 15.0852 42.7251 15.4517C42.9126 15.8153 43.0064 16.2784 43.0064 16.8409V21H42.0007V16.9091C42.0007 16.3892 41.8658 15.9872 41.5959 15.7031C41.3288 15.4162 40.9581 15.2727 40.4837 15.2727C40.1541 15.2727 39.8587 15.3423 39.5973 15.4815C39.3388 15.6207 39.1342 15.8239 38.9837 16.0909C38.8359 16.358 38.7621 16.6818 38.7621 17.0625ZM47.6928 14.4545V15.3068H44.3008V14.4545H47.6928ZM45.2894 12.8864H46.2951V19.125C46.2951 19.4091 46.3363 19.6222 46.4187 19.7642C46.5039 19.9034 46.6119 19.9972 46.7425 20.0455C46.8761 20.0909 47.0167 20.1136 47.1644 20.1136C47.2752 20.1136 47.3661 20.108 47.4371 20.0966C47.5082 20.0824 47.565 20.071 47.6076 20.0625L47.8121 20.9659C47.744 20.9915 47.6488 21.017 47.5266 21.0426C47.4045 21.071 47.2496 21.0852 47.0621 21.0852C46.7781 21.0852 46.4996 21.0241 46.2269 20.902C45.957 20.7798 45.7326 20.5938 45.5536 20.3438C45.3775 20.0938 45.2894 19.7784 45.2894 19.3977V12.8864Z" fill="black"/>
<path d="M102.75 21H100.057V12.2727H102.869C103.716 12.2727 104.44 12.4474 105.043 12.7969C105.645 13.1435 106.107 13.642 106.428 14.2926C106.749 14.9403 106.909 15.7159 106.909 16.6193C106.909 17.5284 106.747 18.3111 106.423 18.9673C106.099 19.6207 105.628 20.1236 105.009 20.4759C104.389 20.8253 103.636 21 102.75 21ZM101.114 20.0625H102.682C103.403 20.0625 104.001 19.9233 104.476 19.6449C104.95 19.3665 105.304 18.9702 105.537 18.456C105.77 17.9418 105.886 17.3295 105.886 16.6193C105.886 15.9148 105.771 15.3082 105.541 14.7997C105.311 14.2884 104.967 13.8963 104.51 13.6236C104.053 13.348 103.483 13.2102 102.801 13.2102H101.114V20.0625Z" fill="black"/>
<path d="M100.415 37H99.3068L102.511 28.2727H103.602L106.807 37H105.699L103.091 29.6534H103.023L100.415 37ZM100.824 33.5909H105.29V34.5284H100.824V33.5909Z" fill="black"/>
<path d="M104.83 47.4545C104.778 47.0227 104.571 46.6875 104.207 46.4489C103.844 46.2102 103.398 46.0909 102.869 46.0909C102.483 46.0909 102.145 46.1534 101.855 46.2784C101.568 46.4034 101.344 46.5753 101.182 46.794C101.023 47.0128 100.943 47.2614 100.943 47.5398C100.943 47.7727 100.999 47.973 101.109 48.1406C101.223 48.3054 101.368 48.4432 101.544 48.554C101.72 48.6619 101.905 48.7514 102.098 48.8224C102.291 48.8906 102.469 48.946 102.631 48.9886L103.517 49.2273C103.744 49.2869 103.997 49.3693 104.276 49.4744C104.557 49.5795 104.825 49.723 105.081 49.9048C105.339 50.0838 105.553 50.3139 105.72 50.5952C105.888 50.8764 105.972 51.2216 105.972 51.6307C105.972 52.1023 105.848 52.5284 105.601 52.9091C105.357 53.2898 104.999 53.5923 104.527 53.8168C104.058 54.0412 103.489 54.1534 102.818 54.1534C102.193 54.1534 101.652 54.0526 101.195 53.8509C100.74 53.6491 100.382 53.3679 100.121 53.0071C99.8622 52.6463 99.7159 52.2273 99.6818 51.75H100.773C100.801 52.0795 100.912 52.3523 101.105 52.5682C101.301 52.7812 101.548 52.9403 101.847 53.0455C102.148 53.1477 102.472 53.1989 102.818 53.1989C103.222 53.1989 103.584 53.1335 103.905 53.0028C104.226 52.8693 104.48 52.6847 104.668 52.4489C104.855 52.2102 104.949 51.9318 104.949 51.6136C104.949 51.3239 104.868 51.0881 104.706 50.9062C104.544 50.7244 104.331 50.5767 104.067 50.4631C103.803 50.3494 103.517 50.25 103.21 50.1648L102.136 49.858C101.455 49.6619 100.915 49.3821 100.517 49.0185C100.119 48.6548 99.9205 48.179 99.9205 47.5909C99.9205 47.1023 100.053 46.6761 100.317 46.3125C100.584 45.946 100.942 45.6619 101.391 45.4602C101.842 45.2557 102.347 45.1534 102.903 45.1534C103.466 45.1534 103.966 45.2543 104.403 45.456C104.841 45.6548 105.188 45.9276 105.443 46.2741C105.702 46.6207 105.838 47.0142 105.852 47.4545H104.83ZM107.573 56.4545V47.4545H108.544V48.4943H108.664C108.738 48.3807 108.84 48.2358 108.971 48.0597C109.104 47.8807 109.294 47.7216 109.542 47.5824C109.792 47.4403 110.13 47.3693 110.556 47.3693C111.107 47.3693 111.593 47.5071 112.013 47.7827C112.434 48.0582 112.762 48.4489 112.998 48.9545C113.233 49.4602 113.351 50.0568 113.351 50.7443C113.351 51.4375 113.233 52.0384 112.998 52.5469C112.762 53.0526 112.435 53.4446 112.017 53.723C111.6 53.9986 111.118 54.1364 110.573 54.1364C110.152 54.1364 109.816 54.0668 109.563 53.9276C109.31 53.7855 109.115 53.625 108.979 53.446C108.843 53.2642 108.738 53.1136 108.664 52.9943H108.578V56.4545H107.573ZM108.561 50.7273C108.561 51.2216 108.634 51.6577 108.779 52.0355C108.924 52.4105 109.135 52.7045 109.414 52.9176C109.692 53.1278 110.033 53.233 110.436 53.233C110.857 53.233 111.208 53.1222 111.489 52.9006C111.773 52.6761 111.986 52.375 112.128 51.9972C112.273 51.6165 112.346 51.1932 112.346 50.7273C112.346 50.267 112.275 49.8523 112.132 49.483C111.993 49.1108 111.782 48.8168 111.498 48.6009C111.216 48.3821 110.863 48.2727 110.436 48.2727C110.027 48.2727 109.684 48.3764 109.405 48.5838C109.127 48.7884 108.917 49.0753 108.775 49.4446C108.632 49.8111 108.561 50.2386 108.561 50.7273ZM116.811 54.1534C116.397 54.1534 116.02 54.0753 115.682 53.919C115.344 53.7599 115.076 53.5312 114.877 53.233C114.678 52.9318 114.578 52.5682 114.578 52.142C114.578 51.767 114.652 51.4631 114.8 51.2301C114.948 50.9943 115.145 50.8097 115.392 50.6761C115.64 50.5426 115.912 50.4432 116.211 50.3778C116.512 50.3097 116.814 50.2557 117.118 50.2159C117.516 50.1648 117.838 50.1264 118.086 50.1009C118.336 50.0724 118.517 50.0256 118.631 49.9602C118.748 49.8949 118.806 49.7812 118.806 49.6193V49.5852C118.806 49.1648 118.691 48.8381 118.461 48.6051C118.233 48.3722 117.888 48.2557 117.425 48.2557C116.945 48.2557 116.569 48.3608 116.296 48.571C116.023 48.7812 115.831 49.0057 115.721 49.2443L114.766 48.9034C114.936 48.5057 115.164 48.196 115.448 47.9744C115.735 47.75 116.047 47.5937 116.385 47.5057C116.726 47.4148 117.061 47.3693 117.391 47.3693C117.601 47.3693 117.843 47.3949 118.115 47.446C118.391 47.4943 118.657 47.5952 118.912 47.7486C119.171 47.902 119.385 48.1335 119.556 48.4432C119.726 48.7528 119.811 49.1676 119.811 49.6875V54H118.806V53.1136H118.755C118.686 53.2557 118.573 53.4077 118.414 53.5696C118.255 53.7315 118.043 53.8693 117.779 53.983C117.515 54.0966 117.192 54.1534 116.811 54.1534ZM116.965 53.25C117.363 53.25 117.698 53.1719 117.971 53.0156C118.246 52.8594 118.453 52.6577 118.593 52.4105C118.735 52.1634 118.806 51.9034 118.806 51.6307V50.7102C118.763 50.7614 118.669 50.8082 118.525 50.8509C118.382 50.8906 118.218 50.9261 118.03 50.9574C117.846 50.9858 117.665 51.0114 117.489 51.0341C117.316 51.054 117.175 51.071 117.067 51.0852C116.806 51.1193 116.561 51.1747 116.334 51.2514C116.11 51.3253 115.928 51.4375 115.789 51.5881C115.652 51.7358 115.584 51.9375 115.584 52.1932C115.584 52.5426 115.713 52.8068 115.972 52.9858C116.233 53.1619 116.564 53.25 116.965 53.25ZM124.306 54.1364C123.692 54.1364 123.164 53.9915 122.721 53.7017C122.278 53.4119 121.937 53.0128 121.698 52.5043C121.46 51.9957 121.34 51.4148 121.34 50.7614C121.34 50.0966 121.462 49.5099 121.707 49.0014C121.954 48.4901 122.298 48.0909 122.738 47.804C123.181 47.5142 123.698 47.3693 124.289 47.3693C124.749 47.3693 125.164 47.4545 125.533 47.625C125.903 47.7955 126.205 48.0341 126.441 48.3409C126.677 48.6477 126.823 49.0057 126.88 49.4148H125.874C125.798 49.1165 125.627 48.8523 125.363 48.6222C125.102 48.3892 124.749 48.2727 124.306 48.2727C123.914 48.2727 123.57 48.375 123.275 48.5795C122.982 48.7812 122.754 49.0668 122.589 49.4361C122.427 49.8026 122.346 50.233 122.346 50.7273C122.346 51.233 122.425 51.6733 122.585 52.0483C122.746 52.4233 122.974 52.7145 123.266 52.9219C123.562 53.1293 123.908 53.233 124.306 53.233C124.567 53.233 124.805 53.1875 125.018 53.0966C125.231 53.0057 125.411 52.875 125.559 52.7045C125.707 52.5341 125.812 52.3295 125.874 52.0909H126.88C126.823 52.4773 126.683 52.8253 126.458 53.1349C126.237 53.4418 125.942 53.6861 125.576 53.8679C125.212 54.0469 124.789 54.1364 124.306 54.1364ZM131.094 54.1364C130.464 54.1364 129.92 53.9972 129.462 53.7188C129.008 53.4375 128.657 53.0455 128.41 52.5426C128.165 52.0369 128.043 51.4489 128.043 50.7784C128.043 50.108 128.165 49.517 128.41 49.0057C128.657 48.4915 129.001 48.0909 129.441 47.804C129.884 47.5142 130.401 47.3693 130.992 47.3693C131.333 47.3693 131.67 47.4261 132.002 47.5398C132.335 47.6534 132.637 47.8381 132.91 48.0938C133.183 48.3466 133.4 48.6818 133.562 49.0994C133.724 49.517 133.805 50.0312 133.805 50.642V51.0682H128.759V50.1989H132.782C132.782 49.8295 132.708 49.5 132.56 49.2102C132.415 48.9205 132.208 48.6918 131.938 48.5241C131.671 48.3565 131.356 48.2727 130.992 48.2727C130.592 48.2727 130.245 48.3722 129.952 48.571C129.663 48.767 129.44 49.0227 129.283 49.3381C129.127 49.6534 129.049 49.9915 129.049 50.3523V50.9318C129.049 51.4261 129.134 51.8452 129.305 52.1889C129.478 52.5298 129.718 52.7898 130.025 52.9688C130.332 53.1449 130.688 53.233 131.094 53.233C131.359 53.233 131.597 53.196 131.81 53.1222C132.026 53.0455 132.212 52.9318 132.369 52.7812C132.525 52.6278 132.646 52.4375 132.731 52.2102L133.702 52.483C133.6 52.8125 133.428 53.1023 133.187 53.3523C132.945 53.5994 132.647 53.7926 132.292 53.9318C131.937 54.0682 131.538 54.1364 131.094 54.1364Z" fill="black"/>
<path d="M102.642 73L100.256 64.2727H101.33L103.153 71.3807H103.239L105.097 64.2727H106.29L108.148 71.3807H108.233L110.057 64.2727H111.131L108.744 73H107.653L105.727 66.0455H105.659L103.733 73H102.642ZM112.311 73V66.4545H113.317V73H112.311ZM112.822 65.3636C112.626 65.3636 112.457 65.2969 112.315 65.1634C112.176 65.0298 112.107 64.8693 112.107 64.6818C112.107 64.4943 112.176 64.3338 112.315 64.2003C112.457 64.0668 112.626 64 112.822 64C113.018 64 113.186 64.0668 113.325 64.2003C113.467 64.3338 113.538 64.4943 113.538 64.6818C113.538 64.8693 113.467 65.0298 113.325 65.1634C113.186 65.2969 113.018 65.3636 112.822 65.3636ZM118.005 66.4545V67.3068H114.613V66.4545H118.005ZM115.602 64.8864H116.608V71.125C116.608 71.4091 116.649 71.6222 116.731 71.7642C116.816 71.9034 116.924 71.9972 117.055 72.0455C117.189 72.0909 117.329 72.1136 117.477 72.1136C117.588 72.1136 117.679 72.108 117.75 72.0966C117.821 72.0824 117.877 72.071 117.92 72.0625L118.125 72.9659C118.056 72.9915 117.961 73.017 117.839 73.0426C117.717 73.071 117.562 73.0852 117.375 73.0852C117.091 73.0852 116.812 73.0241 116.539 72.902C116.27 72.7798 116.045 72.5938 115.866 72.3438C115.69 72.0938 115.602 71.7784 115.602 71.3977V64.8864ZM120.664 69.0625V73H119.659V64.2727H120.664V67.4773H120.75C120.903 67.1392 121.133 66.8707 121.44 66.6719C121.75 66.4702 122.162 66.3693 122.676 66.3693C123.122 66.3693 123.512 66.4588 123.848 66.6378C124.183 66.8139 124.443 67.0852 124.627 67.4517C124.815 67.8153 124.909 68.2784 124.909 68.8409V73H123.903V68.9091C123.903 68.3892 123.768 67.9872 123.498 67.7031C123.231 67.4162 122.86 67.2727 122.386 67.2727C122.056 67.2727 121.761 67.3423 121.5 67.4815C121.241 67.6207 121.037 67.8239 120.886 68.0909C120.738 68.358 120.664 68.6818 120.664 69.0625ZM130.26 64.2727H131.521L134.487 71.517H134.589L137.555 64.2727H138.817V73H137.828V66.3693H137.743L135.016 73H134.061L131.334 66.3693H131.249V73H130.26V64.2727ZM143.458 73.1364C142.868 73.1364 142.349 72.9957 141.903 72.7145C141.46 72.4332 141.113 72.0398 140.863 71.5341C140.616 71.0284 140.493 70.4375 140.493 69.7614C140.493 69.0795 140.616 68.4844 140.863 67.9759C141.113 67.4673 141.46 67.0724 141.903 66.7912C142.349 66.5099 142.868 66.3693 143.458 66.3693C144.049 66.3693 144.566 66.5099 145.01 66.7912C145.456 67.0724 145.802 67.4673 146.049 67.9759C146.299 68.4844 146.424 69.0795 146.424 69.7614C146.424 70.4375 146.299 71.0284 146.049 71.5341C145.802 72.0398 145.456 72.4332 145.01 72.7145C144.566 72.9957 144.049 73.1364 143.458 73.1364ZM143.458 72.233C143.907 72.233 144.277 72.1179 144.566 71.8878C144.856 71.6577 145.071 71.3551 145.21 70.9801C145.349 70.6051 145.419 70.1989 145.419 69.7614C145.419 69.3239 145.349 68.9162 145.21 68.5384C145.071 68.1605 144.856 67.8551 144.566 67.6222C144.277 67.3892 143.907 67.2727 143.458 67.2727C143.01 67.2727 142.64 67.3892 142.35 67.6222C142.061 67.8551 141.846 68.1605 141.707 68.5384C141.568 68.9162 141.498 69.3239 141.498 69.7614C141.498 70.1989 141.568 70.6051 141.707 70.9801C141.846 71.3551 142.061 71.6577 142.35 71.8878C142.64 72.1179 143.01 72.233 143.458 72.233ZM152.085 70.3239V66.4545H153.09V73H152.085V71.892H152.016C151.863 72.2244 151.624 72.5071 151.3 72.7401C150.977 72.9702 150.567 73.0852 150.073 73.0852C149.664 73.0852 149.3 72.9957 148.982 72.8168C148.664 72.6349 148.414 72.3622 148.232 71.9986C148.05 71.6321 147.96 71.1705 147.96 70.6136V66.4545H148.965V70.5455C148.965 71.0227 149.099 71.4034 149.366 71.6875C149.636 71.9716 149.979 72.1136 150.397 72.1136C150.647 72.1136 150.901 72.0497 151.16 71.9219C151.421 71.794 151.64 71.598 151.816 71.3338C151.995 71.0696 152.085 70.733 152.085 70.3239ZM159.569 67.9205L158.665 68.1761C158.608 68.0256 158.525 67.8793 158.414 67.7372C158.306 67.5923 158.158 67.473 157.971 67.3793C157.783 67.2855 157.543 67.2386 157.25 67.2386C156.85 67.2386 156.516 67.331 156.249 67.5156C155.985 67.6974 155.853 67.929 155.853 68.2102C155.853 68.4602 155.944 68.6577 156.125 68.8026C156.307 68.9474 156.591 69.0682 156.978 69.1648L157.949 69.4034C158.534 69.5455 158.971 69.7628 159.257 70.0554C159.544 70.3452 159.688 70.7187 159.688 71.1761C159.688 71.5511 159.58 71.8864 159.364 72.1818C159.151 72.4773 158.853 72.7102 158.469 72.8807C158.086 73.0511 157.64 73.1364 157.131 73.1364C156.463 73.1364 155.911 72.9915 155.473 72.7017C155.036 72.4119 154.759 71.9886 154.642 71.4318L155.597 71.1932C155.688 71.5455 155.86 71.8097 156.113 71.9858C156.368 72.1619 156.702 72.25 157.114 72.25C157.583 72.25 157.955 72.1506 158.23 71.9517C158.509 71.75 158.648 71.5085 158.648 71.2273C158.648 71 158.569 70.8097 158.409 70.6562C158.25 70.5 158.006 70.3835 157.676 70.3068L156.586 70.0511C155.986 69.9091 155.546 69.6889 155.265 69.3906C154.986 69.0895 154.847 68.7131 154.847 68.2614C154.847 67.892 154.951 67.5653 155.158 67.2812C155.368 66.9972 155.654 66.7741 156.015 66.6122C156.378 66.4503 156.79 66.3693 157.25 66.3693C157.898 66.3693 158.407 66.5114 158.776 66.7955C159.148 67.0795 159.412 67.4545 159.569 67.9205ZM163.946 73.1364C163.315 73.1364 162.771 72.9972 162.314 72.7188C161.859 72.4375 161.509 72.0455 161.261 71.5426C161.017 71.0369 160.895 70.4489 160.895 69.7784C160.895 69.108 161.017 68.517 161.261 68.0057C161.509 67.4915 161.852 67.0909 162.293 66.804C162.736 66.5142 163.253 66.3693 163.844 66.3693C164.185 66.3693 164.521 66.4261 164.854 66.5398C165.186 66.6534 165.489 66.8381 165.761 67.0938C166.034 67.3466 166.251 67.6818 166.413 68.0994C166.575 68.517 166.656 69.0312 166.656 69.642V70.0682H161.611V69.1989H165.634C165.634 68.8295 165.56 68.5 165.412 68.2102C165.267 67.9205 165.06 67.6918 164.79 67.5241C164.523 67.3565 164.207 67.2727 163.844 67.2727C163.443 67.2727 163.097 67.3722 162.804 67.571C162.514 67.767 162.291 68.0227 162.135 68.3381C161.979 68.6534 161.901 68.9915 161.901 69.3523V69.9318C161.901 70.4261 161.986 70.8452 162.156 71.1889C162.33 71.5298 162.57 71.7898 162.876 71.9688C163.183 72.1449 163.54 72.233 163.946 72.233C164.21 72.233 164.449 72.196 164.662 72.1222C164.878 72.0455 165.064 71.9318 165.22 71.7812C165.376 71.6278 165.497 71.4375 165.582 71.2102L166.554 71.483C166.452 71.8125 166.28 72.1023 166.038 72.3523C165.797 72.5994 165.499 72.7926 165.143 72.9318C164.788 73.0682 164.389 73.1364 163.946 73.1364Z" fill="black"/>
<path d="M100.057 90V81.2727H101.114V89.0625H105.17V90H100.057ZM106.807 81.2727H108.068L111.034 88.517H111.136L114.102 81.2727H115.364V90H114.375V83.3693H114.29L111.562 90H110.608L107.881 83.3693H107.795V90H106.807V81.2727ZM117.483 90V81.2727H120.534C121.142 81.2727 121.643 81.3778 122.038 81.5881C122.433 81.7955 122.727 82.0753 122.92 82.4276C123.113 82.777 123.21 83.1648 123.21 83.5909C123.21 83.9659 123.143 84.2756 123.01 84.5199C122.879 84.7642 122.706 84.9574 122.49 85.0994C122.277 85.2415 122.045 85.3466 121.795 85.4148V85.5C122.062 85.517 122.331 85.6108 122.6 85.7812C122.87 85.9517 123.096 86.196 123.278 86.5142C123.46 86.8324 123.551 87.2216 123.551 87.6818C123.551 88.1193 123.451 88.5128 123.252 88.8622C123.054 89.2116 122.74 89.4886 122.311 89.6932C121.882 89.8977 121.324 90 120.636 90H117.483ZM118.539 89.0625H120.636C121.326 89.0625 121.816 88.929 122.106 88.6619C122.399 88.392 122.545 88.0653 122.545 87.6818C122.545 87.3864 122.47 87.1136 122.319 86.8636C122.169 86.6108 121.954 86.4091 121.676 86.2585C121.397 86.1051 121.068 86.0284 120.687 86.0284H118.539V89.0625ZM118.539 85.108H120.5C120.818 85.108 121.105 85.0455 121.36 84.9205C121.619 84.7955 121.824 84.6193 121.974 84.392C122.127 84.1648 122.204 83.8977 122.204 83.5909C122.204 83.2074 122.071 82.8821 121.804 82.6151C121.537 82.3452 121.113 82.2102 120.534 82.2102H118.539V85.108Z" fill="black"/>
<path d="M100.057 106V97.2727H105.324V98.2102H101.114V101.159H105.051V102.097H101.114V105.062H105.392V106H100.057Z" fill="black"/>
<path d="M24.7841 81.2727H25.8409V87.0511C25.8409 87.6477 25.7003 88.1804 25.419 88.6491C25.1406 89.1151 24.7472 89.483 24.2386 89.7528C23.7301 90.0199 23.1335 90.1534 22.4489 90.1534C21.7642 90.1534 21.1676 90.0199 20.6591 89.7528C20.1506 89.483 19.7557 89.1151 19.4744 88.6491C19.196 88.1804 19.0568 87.6477 19.0568 87.0511V81.2727H20.1136V86.9659C20.1136 87.392 20.2074 87.7713 20.3949 88.1037C20.5824 88.4332 20.8494 88.6932 21.196 88.8835C21.5455 89.071 21.9631 89.1648 22.4489 89.1648C22.9347 89.1648 23.3523 89.071 23.7017 88.8835C24.0511 88.6932 24.3182 88.4332 24.5028 88.1037C24.6903 87.7713 24.7841 87.392 24.7841 86.9659V81.2727ZM32.4513 84.9205L31.5479 85.1761C31.4911 85.0256 31.4073 84.8793 31.2965 84.7372C31.1886 84.5923 31.0408 84.473 30.8533 84.3793C30.6658 84.2855 30.4258 84.2386 30.1332 84.2386C29.7326 84.2386 29.3988 84.331 29.1317 84.5156C28.8675 84.6974 28.7354 84.929 28.7354 85.2102C28.7354 85.4602 28.8263 85.6577 29.0082 85.8026C29.19 85.9474 29.4741 86.0682 29.8604 86.1648L30.832 86.4034C31.4173 86.5455 31.8533 86.7628 32.1403 87.0554C32.4272 87.3452 32.5707 87.7187 32.5707 88.1761C32.5707 88.5511 32.4627 88.8864 32.2468 89.1818C32.0337 89.4773 31.7354 89.7102 31.3519 89.8807C30.9684 90.0511 30.5224 90.1364 30.0138 90.1364C29.3462 90.1364 28.7937 89.9915 28.3562 89.7017C27.9187 89.4119 27.6417 88.9886 27.5252 88.4318L28.4798 88.1932C28.5707 88.5455 28.7425 88.8097 28.9954 88.9858C29.2511 89.1619 29.5849 89.25 29.9968 89.25C30.4656 89.25 30.8377 89.1506 31.1133 88.9517C31.3917 88.75 31.5309 88.5085 31.5309 88.2273C31.5309 88 31.4513 87.8097 31.2923 87.6562C31.1332 87.5 30.8888 87.3835 30.5593 87.3068L29.4684 87.0511C28.869 86.9091 28.4286 86.6889 28.1474 86.3906C27.869 86.0895 27.7298 85.7131 27.7298 85.2614C27.7298 84.892 27.8335 84.5653 28.0408 84.2812C28.2511 83.9972 28.5366 83.7741 28.8974 83.6122C29.261 83.4503 29.6729 83.3693 30.1332 83.3693C30.7809 83.3693 31.2894 83.5114 31.6587 83.7955C32.0309 84.0795 32.2951 84.4545 32.4513 84.9205ZM36.8288 90.1364C36.1982 90.1364 35.6541 89.9972 35.1967 89.7188C34.7422 89.4375 34.3913 89.0455 34.1442 88.5426C33.8999 88.0369 33.7777 87.4489 33.7777 86.7784C33.7777 86.108 33.8999 85.517 34.1442 85.0057C34.3913 84.4915 34.7351 84.0909 35.1754 83.804C35.6186 83.5142 36.1357 83.3693 36.7266 83.3693C37.0675 83.3693 37.4041 83.4261 37.7365 83.5398C38.0689 83.6534 38.3714 83.8381 38.6442 84.0938C38.9169 84.3466 39.1342 84.6818 39.2962 85.0994C39.4581 85.517 39.5391 86.0312 39.5391 86.642V87.0682H34.4936V86.1989H38.5163C38.5163 85.8295 38.4425 85.5 38.2947 85.2102C38.1499 84.9205 37.9425 84.6918 37.6726 84.5241C37.4055 84.3565 37.0902 84.2727 36.7266 84.2727C36.326 84.2727 35.9794 84.3722 35.6868 84.571C35.397 84.767 35.174 85.0227 35.0178 85.3381C34.8615 85.6534 34.7834 85.9915 34.7834 86.3523V86.9318C34.7834 87.4261 34.8686 87.8452 35.0391 88.1889C35.2124 88.5298 35.4524 88.7898 35.7592 88.9688C36.0661 89.1449 36.4226 89.233 36.8288 89.233C37.093 89.233 37.3317 89.196 37.5447 89.1222C37.7607 89.0455 37.9467 88.9318 38.103 88.7812C38.2592 88.6278 38.38 88.4375 38.4652 88.2102L39.4368 88.483C39.3345 88.8125 39.1626 89.1023 38.9212 89.3523C38.6797 89.5994 38.3814 89.7926 38.0263 89.9318C37.6712 90.0682 37.272 90.1364 36.8288 90.1364ZM44.5803 90V81.2727H49.8473V82.2102H45.6371V85.1591H49.5746V86.0966H45.6371V89.0625H49.9155V90H44.5803ZM52.6214 81.2727V90H51.6158V81.2727H52.6214ZM57.2077 90.1364C56.5771 90.1364 56.033 89.9972 55.5756 89.7188C55.1211 89.4375 54.7702 89.0455 54.5231 88.5426C54.2788 88.0369 54.1566 87.4489 54.1566 86.7784C54.1566 86.108 54.2788 85.517 54.5231 85.0057C54.7702 84.4915 55.114 84.0909 55.5543 83.804C55.9975 83.5142 56.5146 83.3693 57.1055 83.3693C57.4464 83.3693 57.783 83.4261 58.1154 83.5398C58.4478 83.6534 58.7504 83.8381 59.0231 84.0938C59.2958 84.3466 59.5131 84.6818 59.6751 85.0994C59.837 85.517 59.918 86.0312 59.918 86.642V87.0682H54.8725V86.1989H58.8952C58.8952 85.8295 58.8214 85.5 58.6737 85.2102C58.5288 84.9205 58.3214 84.6918 58.0515 84.5241C57.7844 84.3565 57.4691 84.2727 57.1055 84.2727C56.7049 84.2727 56.3583 84.3722 56.0657 84.571C55.7759 84.767 55.5529 85.0227 55.3967 85.3381C55.2404 85.6534 55.1623 85.9915 55.1623 86.3523V86.9318C55.1623 87.4261 55.2475 87.8452 55.418 88.1889C55.5913 88.5298 55.8313 88.7898 56.1381 88.9688C56.445 89.1449 56.8015 89.233 57.2077 89.233C57.4719 89.233 57.7106 89.196 57.9237 89.1222C58.1396 89.0455 58.3256 88.9318 58.4819 88.7812C58.6381 88.6278 58.7589 88.4375 58.8441 88.2102L59.8157 88.483C59.7134 88.8125 59.5415 89.1023 59.3001 89.3523C59.0586 89.5994 58.7603 89.7926 58.4052 89.9318C58.0501 90.0682 57.6509 90.1364 57.2077 90.1364ZM61.4478 90V83.4545H62.4194V84.4773H62.5046C62.641 84.1278 62.8612 83.8565 63.1651 83.6634C63.4691 83.4673 63.8342 83.3693 64.2603 83.3693C64.6921 83.3693 65.0515 83.4673 65.3384 83.6634C65.6282 83.8565 65.854 84.1278 66.016 84.4773H66.0842C66.2518 84.1392 66.5032 83.8707 66.8384 83.6719C67.1737 83.4702 67.5756 83.3693 68.0444 83.3693C68.6296 83.3693 69.1083 83.5526 69.4805 83.919C69.8526 84.2827 70.0387 84.8494 70.0387 85.6193V90H69.033V85.6193C69.033 85.1364 68.9009 84.7912 68.6367 84.5838C68.3725 84.3764 68.0614 84.2727 67.7035 84.2727C67.2433 84.2727 66.8867 84.4119 66.6339 84.6903C66.381 84.9659 66.2546 85.3153 66.2546 85.7386V90H65.2319V85.517C65.2319 85.1449 65.1112 84.8452 64.8697 84.6179C64.6282 84.3878 64.3171 84.2727 63.9364 84.2727C63.6751 84.2727 63.4308 84.3423 63.2035 84.4815C62.979 84.6207 62.7972 84.8139 62.658 85.0611C62.5217 85.3054 62.4535 85.5881 62.4535 85.9091V90H61.4478ZM74.6218 90.1364C73.9911 90.1364 73.4471 89.9972 72.9897 89.7188C72.5352 89.4375 72.1843 89.0455 71.9371 88.5426C71.6928 88.0369 71.5707 87.4489 71.5707 86.7784C71.5707 86.108 71.6928 85.517 71.9371 85.0057C72.1843 84.4915 72.5281 84.0909 72.9684 83.804C73.4116 83.5142 73.9286 83.3693 74.5195 83.3693C74.8604 83.3693 75.1971 83.4261 75.5295 83.5398C75.8619 83.6534 76.1644 83.8381 76.4371 84.0938C76.7099 84.3466 76.9272 84.6818 77.0891 85.0994C77.2511 85.517 77.332 86.0312 77.332 86.642V87.0682H72.2866V86.1989H76.3093C76.3093 85.8295 76.2354 85.5 76.0877 85.2102C75.9428 84.9205 75.7354 84.6918 75.4656 84.5241C75.1985 84.3565 74.8832 84.2727 74.5195 84.2727C74.119 84.2727 73.7724 84.3722 73.4798 84.571C73.19 84.767 72.967 85.0227 72.8107 85.3381C72.6545 85.6534 72.5763 85.9915 72.5763 86.3523V86.9318C72.5763 87.4261 72.6616 87.8452 72.832 88.1889C73.0053 88.5298 73.2454 88.7898 73.5522 88.9688C73.859 89.1449 74.2156 89.233 74.6218 89.233C74.886 89.233 75.1246 89.196 75.3377 89.1222C75.5536 89.0455 75.7397 88.9318 75.896 88.7812C76.0522 88.6278 76.1729 88.4375 76.2582 88.2102L77.2298 88.483C77.1275 88.8125 76.9556 89.1023 76.7141 89.3523C76.4727 89.5994 76.1744 89.7926 75.8192 89.9318C75.4641 90.0682 75.065 90.1364 74.6218 90.1364ZM79.8675 86.0625V90H78.8619V83.4545H79.8335V84.4773H79.9187C80.0721 84.1449 80.305 83.8778 80.6175 83.6761C80.93 83.4716 81.3335 83.3693 81.8278 83.3693C82.271 83.3693 82.6587 83.4602 82.9911 83.642C83.3235 83.821 83.582 84.0938 83.7667 84.4602C83.9513 84.8239 84.0437 85.2841 84.0437 85.8409V90H83.038V85.9091C83.038 85.3949 82.9045 84.9943 82.6374 84.7074C82.3704 84.4176 82.0039 84.2727 81.538 84.2727C81.217 84.2727 80.93 84.3423 80.6772 84.4815C80.4272 84.6207 80.2298 84.8239 80.0849 85.0909C79.94 85.358 79.8675 85.6818 79.8675 86.0625ZM88.728 83.4545V84.3068H85.3359V83.4545H88.728ZM86.3246 81.8864H87.3303V88.125C87.3303 88.4091 87.3714 88.6222 87.4538 88.7642C87.5391 88.9034 87.647 88.9972 87.7777 89.0455C87.9112 89.0909 88.0518 89.1136 88.1996 89.1136C88.3104 89.1136 88.4013 89.108 88.4723 89.0966C88.5433 89.0824 88.6001 89.071 88.6428 89.0625L88.8473 89.9659C88.7791 89.9915 88.6839 90.017 88.5618 90.0426C88.4396 90.071 88.2848 90.0852 88.0973 90.0852C87.8132 90.0852 87.5348 90.0241 87.2621 89.902C86.9922 89.7798 86.7678 89.5938 86.5888 89.3438C86.4126 89.0938 86.3246 88.7784 86.3246 88.3977V81.8864Z" fill="black"/>
<path d="M21.1136 97.2727V106H20.0568V97.2727H21.1136ZM24.1019 102.062V106H23.0962V99.4545H24.0678V100.477H24.1531C24.3065 100.145 24.5394 99.8778 24.8519 99.6761C25.1644 99.4716 25.5678 99.3693 26.0621 99.3693C26.5053 99.3693 26.8931 99.4602 27.2255 99.642C27.5579 99.821 27.8164 100.094 28.0011 100.46C28.1857 100.824 28.2781 101.284 28.2781 101.841V106H27.2724V101.909C27.2724 101.395 27.1388 100.994 26.8718 100.707C26.6048 100.418 26.2383 100.273 25.7724 100.273C25.4513 100.273 25.1644 100.342 24.9116 100.482C24.6616 100.621 24.4641 100.824 24.3192 101.091C24.1744 101.358 24.1019 101.682 24.1019 102.062ZM32.9624 99.4545V100.307H29.5703V99.4545H32.9624ZM30.5589 97.8864H31.5646V104.125C31.5646 104.409 31.6058 104.622 31.6882 104.764C31.7734 104.903 31.8814 104.997 32.0121 105.045C32.1456 105.091 32.2862 105.114 32.4339 105.114C32.5447 105.114 32.6357 105.108 32.7067 105.097C32.7777 105.082 32.8345 105.071 32.8771 105.062L33.0817 105.966C33.0135 105.991 32.9183 106.017 32.7962 106.043C32.674 106.071 32.5192 106.085 32.3317 106.085C32.0476 106.085 31.7692 106.024 31.4964 105.902C31.2266 105.78 31.0021 105.594 30.8232 105.344C30.647 105.094 30.5589 104.778 30.5589 104.398V97.8864ZM37.1491 106.136C36.5185 106.136 35.9744 105.997 35.517 105.719C35.0625 105.438 34.7116 105.045 34.4645 104.543C34.2202 104.037 34.098 103.449 34.098 102.778C34.098 102.108 34.2202 101.517 34.4645 101.006C34.7116 100.491 35.0554 100.091 35.4957 99.804C35.9389 99.5142 36.456 99.3693 37.0469 99.3693C37.3878 99.3693 37.7244 99.4261 38.0568 99.5398C38.3892 99.6534 38.6918 99.8381 38.9645 100.094C39.2372 100.347 39.4545 100.682 39.6165 101.099C39.7784 101.517 39.8594 102.031 39.8594 102.642V103.068H34.8139V102.199H38.8366C38.8366 101.83 38.7628 101.5 38.6151 101.21C38.4702 100.92 38.2628 100.692 37.9929 100.524C37.7259 100.357 37.4105 100.273 37.0469 100.273C36.6463 100.273 36.2997 100.372 36.0071 100.571C35.7173 100.767 35.4943 101.023 35.3381 101.338C35.1818 101.653 35.1037 101.991 35.1037 102.352V102.932C35.1037 103.426 35.1889 103.845 35.3594 104.189C35.5327 104.53 35.7727 104.79 36.0795 104.969C36.3864 105.145 36.7429 105.233 37.1491 105.233C37.4134 105.233 37.652 105.196 37.8651 105.122C38.081 105.045 38.267 104.932 38.4233 104.781C38.5795 104.628 38.7003 104.437 38.7855 104.21L39.7571 104.483C39.6548 104.812 39.483 105.102 39.2415 105.352C39 105.599 38.7017 105.793 38.3466 105.932C37.9915 106.068 37.5923 106.136 37.1491 106.136ZM41.3892 106V99.4545H42.3608V100.443H42.429C42.5483 100.119 42.7642 99.8565 43.0767 99.6548C43.3892 99.4531 43.7415 99.3523 44.1335 99.3523C44.2074 99.3523 44.2997 99.3537 44.4105 99.3565C44.5213 99.3594 44.6051 99.3636 44.6619 99.3693V100.392C44.6278 100.384 44.5497 100.371 44.4276 100.354C44.3082 100.334 44.1818 100.324 44.0483 100.324C43.7301 100.324 43.446 100.391 43.196 100.524C42.9489 100.655 42.7528 100.837 42.608 101.07C42.4659 101.3 42.3949 101.562 42.3949 101.858V106H41.3892ZM47.7802 106.153C47.3654 106.153 46.989 106.075 46.6509 105.919C46.3129 105.76 46.0444 105.531 45.8455 105.233C45.6467 104.932 45.5472 104.568 45.5472 104.142C45.5472 103.767 45.6211 103.463 45.7688 103.23C45.9165 102.994 46.114 102.81 46.3612 102.676C46.6083 102.543 46.881 102.443 47.1793 102.378C47.4805 102.31 47.783 102.256 48.087 102.216C48.4847 102.165 48.8072 102.126 49.0543 102.101C49.3043 102.072 49.4862 102.026 49.5998 101.96C49.7163 101.895 49.7745 101.781 49.7745 101.619V101.585C49.7745 101.165 49.6594 100.838 49.4293 100.605C49.2021 100.372 48.8569 100.256 48.3938 100.256C47.9137 100.256 47.5373 100.361 47.2646 100.571C46.9918 100.781 46.8001 101.006 46.6893 101.244L45.7347 100.903C45.9052 100.506 46.1325 100.196 46.4165 99.9744C46.7035 99.75 47.016 99.5937 47.354 99.5057C47.695 99.4148 48.0302 99.3693 48.3597 99.3693C48.57 99.3693 48.8114 99.3949 49.0842 99.446C49.3597 99.4943 49.6254 99.5952 49.881 99.7486C50.1396 99.902 50.354 100.134 50.5245 100.443C50.695 100.753 50.7802 101.168 50.7802 101.688V106H49.7745V105.114H49.7234C49.6552 105.256 49.5415 105.408 49.3825 105.57C49.2234 105.732 49.0117 105.869 48.7475 105.983C48.4833 106.097 48.1609 106.153 47.7802 106.153ZM47.9336 105.25C48.3313 105.25 48.6665 105.172 48.9393 105.016C49.2148 104.859 49.4222 104.658 49.5614 104.411C49.7035 104.163 49.7745 103.903 49.7745 103.631V102.71C49.7319 102.761 49.6381 102.808 49.4933 102.851C49.3512 102.891 49.1864 102.926 48.9989 102.957C48.8143 102.986 48.6339 103.011 48.4577 103.034C48.2844 103.054 48.1438 103.071 48.0359 103.085C47.7745 103.119 47.5302 103.175 47.3029 103.251C47.0785 103.325 46.8967 103.437 46.7575 103.588C46.6211 103.736 46.5529 103.937 46.5529 104.193C46.5529 104.543 46.6822 104.807 46.9407 104.986C47.2021 105.162 47.533 105.25 47.9336 105.25ZM55.2749 106.136C54.6612 106.136 54.1328 105.991 53.6896 105.702C53.2464 105.412 52.9055 105.013 52.6669 104.504C52.4283 103.996 52.3089 103.415 52.3089 102.761C52.3089 102.097 52.4311 101.51 52.6754 101.001C52.9226 100.49 53.2663 100.091 53.7067 99.804C54.1499 99.5142 54.6669 99.3693 55.2578 99.3693C55.718 99.3693 56.1328 99.4545 56.5021 99.625C56.8714 99.7955 57.174 100.034 57.4098 100.341C57.6456 100.648 57.7919 101.006 57.8487 101.415H56.843C56.7663 101.116 56.5959 100.852 56.3317 100.622C56.0703 100.389 55.718 100.273 55.2749 100.273C54.8828 100.273 54.5391 100.375 54.2436 100.58C53.951 100.781 53.7223 101.067 53.5575 101.436C53.3956 101.803 53.3146 102.233 53.3146 102.727C53.3146 103.233 53.3942 103.673 53.5533 104.048C53.7152 104.423 53.9425 104.714 54.2351 104.922C54.5305 105.129 54.8771 105.233 55.2749 105.233C55.5362 105.233 55.7734 105.188 55.9865 105.097C56.1996 105.006 56.38 104.875 56.5277 104.705C56.6754 104.534 56.7805 104.33 56.843 104.091H57.8487C57.7919 104.477 57.6513 104.825 57.4268 105.135C57.2053 105.442 56.9112 105.686 56.5447 105.868C56.1811 106.047 55.7578 106.136 55.2749 106.136ZM62.1655 99.4545V100.307H58.7734V99.4545H62.1655ZM59.7621 97.8864H60.7678V104.125C60.7678 104.409 60.8089 104.622 60.8913 104.764C60.9766 104.903 61.0845 104.997 61.2152 105.045C61.3487 105.091 61.4893 105.114 61.6371 105.114C61.7479 105.114 61.8388 105.108 61.9098 105.097C61.9808 105.082 62.0376 105.071 62.0803 105.062L62.2848 105.966C62.2166 105.991 62.1214 106.017 61.9993 106.043C61.8771 106.071 61.7223 106.085 61.5348 106.085C61.2507 106.085 60.9723 106.024 60.6996 105.902C60.4297 105.78 60.2053 105.594 60.0263 105.344C59.8501 105.094 59.7621 104.778 59.7621 104.398V97.8864Z" fill="black"/>
<path d="M95.5 7L95.5 107.5" stroke="black"/>
<path d="M177.5 7L177.5 107.5" stroke="black"/>
<path d="M11.5 7L11.5 107.5" stroke="black"/>
<path d="M11 24H178" stroke="black"/>
<path d="M11 40H178" stroke="black"/>
<path d="M11 58H178" stroke="black"/>
<path d="M11 7H178" stroke="black"/>
<path d="M11 77H178M11 107.5H94.5H178M11 93H178" stroke="black"/>
</svg>
